<svg width="41" height="38" viewBox="0 0 41 38" fill="none" xmlns="http://www.w3.org/2000/svg">
<path d="M13.6665 3C13.6665 1.34314 15.0096 0 16.6665 0H37.9998C39.6566 0 40.9998 1.34315 40.9998 3V7.32165C40.9998 8.9785 39.6566 10.3216 37.9998 10.3216H16.6665C15.0096 10.3216 13.6665 8.9785 13.6665 7.32165V3Z" fill="#122926"/>
<path d="M13.6665 16.7621C13.6665 15.1053 15.0096 13.7621 16.6665 13.7621H31.1664C32.8233 13.7621 34.1664 15.1053 34.1664 16.7621V21.0838C34.1664 22.7406 32.8233 24.0838 31.1664 24.0838H16.6665C15.0096 24.0838 13.6665 22.7406 13.6665 21.0838V16.7621Z" fill="#122926"/>
<path d="M13.6665 30.5243C13.6665 28.8674 15.0096 27.5243 16.6665 27.5243H20.9165C22.5733 27.5243 23.9165 28.8674 23.9165 30.5243V34.8459C23.9165 36.5028 22.5733 37.8459 20.9165 37.8459H16.6665C15.0096 37.8459 13.6665 36.5028 13.6665 34.8459V30.5243Z" fill="#122926"/>
<path d="M0 16.7621C0 15.1053 1.34315 13.7621 3 13.7621H7.24997C8.90682 13.7621 10.25 15.1053 10.25 16.7621V21.0838C10.25 22.7406 8.90682 24.0838 7.24997 24.0838H3C1.34315 24.0838 0 22.7406 0 21.0838V16.7621Z" fill="#122926"/>
</svg>
